<svg xmlns="http://www.w3.org/2000/svg" width="256" height="256" viewBox="0 0 100 100"><rect width="100" height="100" rx="50" fill="#ffffff"></rect><path d="M52.17 17.70L52.17 17.70Q51.99 17.43 51.67 16.84Q51.36 16.26 51.54 16.08L51.54 16.08Q51.72 15.90 52.12 16.17Q52.53 16.44 52.62 16.53L52.62 16.53Q54.24 17.70 55.63 19.77Q57.03 21.84 58.15 24.31Q59.28 26.79 60.18 29.49Q61.08 32.19 61.62 34.62L61.62 34.62Q62.97 40.56 63.91 46.32Q64.86 52.08 64.86 58.20L64.86 58.20Q64.86 58.38 64.90 59.28Q64.95 60.18 64.59 60.36L64.59 60.36Q64.32 60.18 64.00 59.46Q63.69 58.74 63.60 58.47L63.60 58.47Q62.52 55.14 61.66 50.86Q60.81 46.59 60.09 43.08L60.09 43.08Q59.55 40.38 59.10 37.90Q58.65 35.43 58.06 33.09Q57.48 30.75 56.71 28.36Q55.95 25.98 54.87 23.37L54.87 23.37Q54.69 23.01 54.28 22.11Q53.88 21.21 53.43 20.31Q52.98 19.41 52.62 18.64Q52.26 17.88 52.17 17.70ZM73.77 84.39L73.77 84.39Q72.78 83.85 72.42 83.71Q72.06 83.58 71.07 82.95L71.07 82.95Q68.91 81.69 67.11 79.66Q65.31 77.64 63.87 75.21Q62.43 72.78 61.30 70.03Q60.18 67.29 59.37 64.59L59.37 64.59Q57.57 65.76 55.09 65.98Q52.62 66.21 50.55 66.21L50.55 66.21Q47.94 66.21 45.37 66.03Q42.81 65.85 40.20 65.85L40.20 65.85Q37.68 70.53 35.47 74.89Q33.27 79.26 32.01 83.04L32.01 83.04Q32.01 83.13 31.92 83.44Q31.83 83.76 31.65 83.76L31.65 83.76Q31.38 83.76 31.38 83.13Q31.38 82.50 31.38 82.32L31.38 82.32Q31.38 78.72 33.13 74.26Q34.89 69.81 37.05 65.49L37.05 65.49L35.70 65.40Q35.16 66.66 34.21 68.91Q33.27 71.16 32.41 73.59Q31.56 76.02 30.88 78.27Q30.21 80.52 30.21 81.87L30.21 81.87Q30.21 82.14 29.94 82.14L29.94 82.14Q29.58 82.14 29.40 81.55Q29.22 80.97 29.08 80.25Q28.95 79.53 28.90 78.76Q28.86 78.00 28.86 77.73L28.86 77.73Q28.86 74.58 29.67 71.11Q30.48 67.65 31.83 64.77L31.83 64.77L30.66 64.59Q29.85 66.57 29.13 68.50Q28.41 70.44 27.87 72.51L27.87 72.51Q27.87 72.69 27.78 72.96Q27.69 73.23 27.51 73.14L27.51 73.14Q27.33 72.78 27.28 72.28Q27.24 71.79 27.24 71.43L27.24 71.43Q27.24 67.65 28.59 64.14L28.59 64.14Q29.04 63.24 29.49 63.24L29.49 63.24Q31.38 62.70 33.31 62.61Q35.25 62.52 37.32 62.52L37.32 62.52Q41.82 62.52 46.23 63.19Q50.64 63.87 55.05 63.87L55.05 63.87Q57.21 63.87 59.01 63.51L59.01 63.51L58.83 62.07Q57.84 62.34 56.71 62.43Q55.59 62.52 54.60 62.52L54.60 62.52Q51.09 62.52 47.35 61.80Q43.62 61.08 40.20 60.09L40.20 60.09Q40.02 59.91 39.48 59.77Q38.94 59.64 38.94 59.37L38.94 59.37Q38.94 59.19 39.48 59.05Q40.02 58.92 40.20 58.92L40.20 58.92Q41.46 58.83 42.67 58.78Q43.89 58.74 45.15 58.74L45.15 58.74Q47.22 58.74 49.29 58.78Q51.36 58.83 53.52 58.83L53.52 58.83Q54.60 58.83 55.77 58.83Q56.94 58.83 58.02 58.74L58.02 58.74L57.84 57.75L56.67 57.75Q52.35 57.75 48.07 56.94Q43.80 56.13 39.48 56.13L39.48 56.13Q35.79 56.13 32.95 57.03Q30.12 57.93 28.09 59.10Q26.07 60.27 24.81 61.44Q23.55 62.61 23.01 63.15L23.01 63.15Q22.83 63.24 22.83 63.24L22.83 63.24Q22.74 63.24 22.74 63.06L22.74 63.06Q22.74 62.97 22.83 62.88L22.83 62.88Q24.45 59.73 26.79 57.61Q29.13 55.50 32.55 54.42L32.55 54.42Q35.97 47.13 39.61 39.93Q43.26 32.73 47.31 25.71L47.31 25.71Q47.40 25.53 47.67 25.12Q47.94 24.72 48.21 24.72L48.21 24.72Q48.30 24.81 48.30 24.90L48.30 24.90L48.30 25.08Q48.30 25.80 48.21 26.16L48.21 26.16Q46.50 33.45 43.17 40.20Q39.84 46.95 36.33 53.52L36.33 53.52L38.04 53.43Q38.31 52.89 39.43 51.09Q40.56 49.29 41.86 47.35Q43.17 45.42 44.25 43.84Q45.33 42.27 45.60 42.27L45.60 42.27L45.69 42.54Q45.69 42.99 45.15 44.52Q44.61 46.05 43.89 47.85Q43.17 49.65 42.49 51.22Q41.82 52.80 41.55 53.43L41.55 53.43Q42.09 53.43 42.63 53.47Q43.17 53.52 43.71 53.52L43.71 53.52Q45.33 50.28 47.17 46.72Q49.02 43.17 50.37 39.48Q51.72 35.79 52.21 32.01Q52.71 28.23 51.63 24.54L51.63 24.54Q51.63 24.99 51.40 26.34Q51.18 27.69 50.82 29.17Q50.46 30.66 50.10 31.78Q49.74 32.91 49.38 32.91L49.38 32.91Q49.11 32.91 49.15 32.55Q49.20 32.19 49.20 32.10L49.20 32.10Q49.20 29.76 49.51 27.46Q49.83 25.17 49.83 22.83L49.83 22.83Q49.83 19.68 48.84 16.71L48.84 16.71Q48.84 16.62 48.57 15.94Q48.30 15.27 48.75 15.27L48.75 15.27Q48.93 15.27 49.38 15.72L49.38 15.72Q50.28 16.62 51.13 18.15Q51.99 19.68 52.71 21.43Q53.43 23.19 54.06 24.90Q54.69 26.61 55.05 27.78L55.05 27.78Q56.22 31.65 56.98 35.56Q57.75 39.48 58.33 43.39Q58.92 47.31 59.55 51.27Q60.18 55.23 60.99 59.10L60.99 59.10Q61.80 62.88 62.92 66.48Q64.05 70.08 65.67 73.32Q67.29 76.56 69.40 79.30Q71.52 82.05 74.31 84.12L74.31 84.12Q74.76 84.57 74.62 84.70Q74.49 84.84 73.77 84.39ZM73.32 75.66L73.59 76.74Q73.68 77.28 73.50 77.23Q73.32 77.19 73.09 76.92Q72.87 76.65 72.64 76.29Q72.42 75.93 72.42 75.84L72.42 75.84Q70.26 71.88 69.00 67.78Q67.74 63.69 67.02 59.50Q66.30 55.32 65.80 51.04Q65.31 46.77 64.63 42.31Q63.96 37.86 62.88 33.27Q61.80 28.68 59.82 23.91L59.82 23.91Q59.73 23.73 59.55 23.28Q59.37 22.83 59.55 22.74L59.55 22.74Q59.73 22.74 60.00 23.01L60.00 23.01L60.36 23.37Q62.34 25.71 63.87 29.58Q65.40 33.45 66.57 37.86Q67.74 42.27 68.50 46.59Q69.27 50.91 69.72 54.15L69.72 54.15Q70.44 59.28 71.25 64.95Q72.06 70.62 73.32 75.66L73.32 75.66ZM46.86 53.88L46.86 53.88Q49.47 54.15 52.03 54.51Q54.60 54.87 57.21 55.05L57.21 55.05Q56.22 50.28 55.50 45.60Q54.78 40.92 54.15 36.06L54.15 36.06Q52.98 40.74 50.95 45.15Q48.93 49.56 46.86 53.88ZM76.47 83.40L76.47 83.40Q74.67 82.59 73.32 81.82Q71.97 81.06 70.98 79.71L70.98 79.71Q69.45 77.64 68.59 75.57Q67.74 73.50 67.20 71.70L67.20 71.70Q67.02 70.98 66.88 70.08Q66.75 69.18 66.93 69.18L66.93 69.18Q67.29 69.18 67.83 70.35Q68.37 71.52 68.82 72.33L68.82 72.33Q70.17 75.12 72.24 77.95Q74.31 80.79 76.74 82.59L76.74 82.59Q77.46 83.22 77.19 83.40Q76.92 83.58 76.47 83.40ZM23.28 66.12L23.28 66.12Q23.28 66.12 23.10 66.12L23.10 66.12L23.01 66.12Q23.01 65.85 23.10 65.58Q23.19 65.31 23.28 65.04L23.28 65.04Q24.00 63.51 24.67 62.74Q25.35 61.98 26.88 61.08L26.88 61.08Q27.78 60.54 29.40 60.00Q31.02 59.46 32.01 59.46L32.01 59.46Q32.19 59.46 32.50 59.50Q32.82 59.55 32.82 59.82L32.82 59.82Q32.82 60.09 31.87 60.54Q30.93 60.99 30.66 61.17L30.66 61.17Q27.24 63.24 25.62 64.32Q24.00 65.40 23.28 66.12Z" fill="#ff0000"></path></svg>